<svg width="20" height="20" viewBox="0 0 20 20" fill="none" xmlns="http://www.w3.org/2000/svg">
<path d="M18.3332 10.0002H1.6665M18.3332 10.0002V15.0002C18.3332 15.4422 18.1576 15.8661 17.845 16.1787C17.5325 16.4912 17.1085 16.6668 16.6665 16.6668H3.33317C2.89114 16.6668 2.46722 16.4912 2.15466 16.1787C1.8421 15.8661 1.6665 15.4422 1.6665 15.0002V10.0002M18.3332 10.0002L15.4582 4.2585C15.3202 3.98082 15.1075 3.74714 14.844 3.58373C14.5805 3.42032 14.2766 3.33366 13.9665 3.3335H6.03317C5.7231 3.33366 5.41922 3.42032 5.15571 3.58373C4.89219 3.74714 4.67948 3.98082 4.5415 4.2585L1.6665 10.0002M4.99984 13.3335H5.00817M8.33317 13.3335H8.3415" stroke="parse(subtle)" stroke-width="1.66667" stroke-linecap="round" stroke-linejoin="round"/>
</svg>
