
<svg width="20" height="20" viewBox="0 0 20 20" fill="none" xmlns="http://www.w3.org/2000/svg">
<path d="M14.9998 17.5C14.9998 15.7319 14.2975 14.0362 13.0472 12.786C11.797 11.5357 10.1013 10.8333 8.33317 10.8333M8.33317 10.8333C6.56506 10.8333 4.86937 11.5357 3.61913 12.786C2.36888 14.0362 1.6665 15.7319 1.6665 17.5M8.33317 10.8333C10.6344 10.8333 12.4998 8.96785 12.4998 6.66667C12.4998 4.36548 10.6344 2.5 8.33317 2.5C6.03198 2.5 4.1665 4.36548 4.1665 6.66667C4.1665 8.96785 6.03198 10.8333 8.33317 10.8333ZM18.3332 16.6667C18.3332 13.8583 16.6665 11.25 14.9998 10C15.5477 9.58897 15.9858 9.04924 16.2753 8.42856C16.5649 7.80788 16.6969 7.12539 16.6599 6.4415C16.6228 5.75761 16.4177 5.0934 16.0627 4.50767C15.7078 3.92193 15.2139 3.43272 14.6248 3.08333" stroke="parse(text)" stroke-width="1.67" stroke-linecap="round" stroke-linejoin="round"/>
</svg>
