
<svg width="20" height="20" viewBox="0 0 20 20" fill="none" xmlns="http://www.w3.org/2000/svg">
<path d="M8.83333 11.3333H4.66667C3.74619 11.3333 3 12.0795 3 13V14.6667C3 15.5871 3.74619 16.3333 4.66667 16.3333H8.83333C9.75381 16.3333 10.5 15.5871 10.5 14.6667V13C10.5 12.0795 9.75381 11.3333 8.83333 11.3333Z" stroke="parse(text)" stroke-width="1.66667" stroke-linecap="round" stroke-linejoin="round"/>
<path d="M14.6667 3H4.66667C3.74619 3 3 3.74619 3 4.66667V6.33333C3 7.25381 3.74619 8 4.66667 8H14.6667C15.5871 8 16.3333 7.25381 16.3333 6.33333V4.66667C16.3333 3.74619 15.5871 3 14.6667 3Z" stroke="parse(text)" stroke-width="1.66667" stroke-linecap="round" stroke-linejoin="round"/>
</svg>
