
<svg width="16" height="16" viewBox="0 0 16 16" fill="none" xmlns="http://www.w3.org/2000/svg">
<g clip-path="url(#clip0_207_73)">
<path d="M5.99996 1V2.66675M9.99996 1V2.66675M5.99996 13.3334L6 15M9.99996 13.3334L10 15M13.3333 6.00008H15M13.3333 9.33342H15M1 6L2.66663 6.00008M1 9.33342H2.66663M3.99996 2.66675H12C12.7363 2.66675 13.3333 3.2637 13.3333 4.00008V12.0001C13.3333 12.7365 12.7363 13.3334 12 13.3334H3.99996C3.26358 13.3334 2.66663 12.7365 2.66663 12.0001V4.00008C2.66663 3.2637 3.26358 2.66675 3.99996 2.66675ZM5.99996 6.00008H9.99996V10.0001H5.99996V6.00008Z" stroke="#797593" stroke-width="2" stroke-linecap="round" stroke-linejoin="round"/>
</g>
<defs>
<clipPath id="clip0_207_73">
<rect width="16" height="16" fill="white"/>
</clipPath>
</defs>
</svg>
