
<svg width="18" height="20" viewBox="0 0 18 20" fill="none" xmlns="http://www.w3.org/2000/svg">
<path d="M6.5641 15.5975C2.58974 16.8121 2.58974 13.5731 1 13.1682M12.1282 18.0268V14.893C12.158 14.5069 12.1068 14.1187 11.978 13.7543C11.8492 13.3899 11.6457 13.0576 11.381 12.7795C13.8769 12.4961 16.5 11.5325 16.5 7.11114C16.4998 5.98057 16.0729 4.89335 15.3077 4.07452C15.67 3.08539 15.6444 1.99208 15.2362 1.0217C15.2362 1.0217 14.2982 0.738278 12.1282 2.22015C10.3064 1.71714 8.38594 1.71714 6.5641 2.22015C4.3941 0.738278 3.45615 1.0217 3.45615 1.0217C3.04789 1.99208 3.02227 3.08539 3.38462 4.07452C2.61369 4.89942 2.18636 5.99647 2.19231 7.13543C2.19231 11.5244 4.81538 12.488 7.31128 12.8038C7.04977 13.0791 6.84808 13.4074 6.71935 13.7674C6.59062 14.1273 6.53772 14.5108 6.5641 14.893V18.0268" stroke="#575279" stroke-width="2" stroke-linecap="round" stroke-linejoin="round"/>
</svg>
